{
    "asset" : {
        "generator" : "Khronos glTF Blender I/O v3.4.50",
        "version" : "2.0"
    },
    "scene" : 0,
    "scenes" : [
        {
            "name" : "Scene",
            "nodes" : [
                22
            ]
        }
    ],
    "nodes" : [
        {
            "mesh" : 0,
            "name" : "Board.003_Black Square.010_0",
            "translation" : [
                -0.23999999463558197,
                -0.24000000953674316,
                0
            ]
        },
        {
            "mesh" : 0,
            "name" : "Board.003_Black Square.010_0.001",
            "translation" : [
                0.23999999463558197,
                -0.24000000953674316,
                0
            ]
        },
        {
            "mesh" : 0,
            "name" : "Board.003_Black Square.010_0.002",
            "translation" : [
                0.23999999463558197,
                0.24000000953674316,
                0
            ]
        },
        {
            "mesh" : 0,
            "name" : "Board.003_Black Square.010_0.003",
            "translation" : [
                -0.23999999463558197,
                0.24000000953674316,
                0
            ]
        },
        {
            "mesh" : 1,
            "name" : "Board.003_White Square.012_0",
            "translation" : [
                -0.23999999463558197,
                -0.24000000953674316,
                0
            ]
        },
        {
            "mesh" : 1,
            "name" : "Board.003_White Square.012_0.001",
            "translation" : [
                0.23999999463558197,
                -0.24000000953674316,
                0
            ]
        },
        {
            "mesh" : 1,
            "name" : "Board.003_White Square.012_0.002",
            "translation" : [
                0.23999999463558197,
                0.24000000953674316,
                0
            ]
        },
        {
            "mesh" : 1,
            "name" : "Board.003_White Square.012_0.003",
            "translation" : [
                -0.23999999463558197,
                0.24000000953674316,
                0
            ]
        },
        {
            "mesh" : 2,
            "name" : "Frame 02.002_Marble.004_0",
            "scale" : [
                2,
                2,
                1
            ]
        },
        {
            "children" : [
                8
            ],
            "name" : "Frame 02.002",
            "scale" : [
                0.8133333325386047,
                0.8133333325386047,
                0.0060000186786055565
            ]
        },
        {
            "children" : [
                0,
                1,
                2,
                3,
                4,
                5,
                6,
                7,
                9
            ],
            "name" : "Board.003",
            "rotation" : [
                -0.70710688829422,
                0,
                0,
                0.7071066498756409
            ],
            "scale" : [
                100,
                99.99999237060547,
                99.99967956542969
            ]
        },
        {
            "name" : "Object_5"
        },
        {
            "children" : [
                11
            ],
            "name" : "Object_4",
            "rotation" : [
                0.7071068286895752,
                0,
                0,
                0.7071067094802856
            ]
        },
        {
            "children" : [
                12
            ],
            "name" : "Sky Area Light.003",
            "rotation" : [
                0.1690758317708969,
                0.7558803558349609,
                -0.27217140793800354,
                0.5709474682807922
            ],
            "scale" : [
                99.99999237060547,
                100,
                99.99998474121094
            ],
            "translation" : [
                447.92724609375,
                735.3929443359375,
                -88.14208221435547
            ]
        },
        {
            "name" : "Object_8"
        },
        {
            "children" : [
                14
            ],
            "name" : "Object_7",
            "rotation" : [
                0.70710688829422,
                0,
                0,
                0.7071066498756409
            ]
        },
        {
            "children" : [
                15
            ],
            "name" : "Spring Green Area Light.003",
            "rotation" : [
                0.1733073592185974,
                -0.49344152212142944,
                0.3601705729961395,
                0.7725005745887756
            ],
            "scale" : [
                99.99999237060547,
                100,
                99.99999237060547
            ],
            "translation" : [
                -479.8049011230469,
                458.74237060546875,
                -72.82746124267578
            ]
        },
        {
            "name" : "Object_11"
        },
        {
            "children" : [
                17
            ],
            "name" : "Object_10",
            "rotation" : [
                0.70710688829422,
                0,
                0,
                0.7071066498756409
            ]
        },
        {
            "children" : [
                18
            ],
            "name" : "Sun Light.003",
            "rotation" : [
                0.16907574236392975,
                0.7558803558349609,
                -0.2721713185310364,
                0.570947527885437
            ],
            "scale" : [
                99.99999237060547,
                100,
                99.99999237060547
            ],
            "translation" : [
                901.7345581054688,
                440.7289123535156,
                406.48040771484375
            ]
        },
        {
            "children" : [
                10,
                13,
                16,
                19
            ],
            "name" : "RootNode"
        },
        {
            "children" : [
                20
            ],
            "name" : "ChessBoard.fbx",
            "rotation" : [
                0.70710688829422,
                0,
                0,
                0.7071066498756409
            ]
        },
        {
            "children" : [
                21
            ],
            "name" : "Sketchfab_model",
            "rotation" : [
                -0.70710688829422,
                0,
                0,
                0.7071066498756409
            ]
        }
    ],
    "materials" : [
        {
            "doubleSided" : true,
            "name" : "Black_Square.002",
            "pbrMetallicRoughness" : {
                "baseColorFactor" : [
                    0.007620729971677065,
                    0.005608549807220697,
                    0.008036879822611809,
                    1
                ],
                "metallicFactor" : 0,
                "roughnessFactor" : 0.9981890320777893
            }
        },
        {
            "doubleSided" : true,
            "name" : "White_Square.002",
            "pbrMetallicRoughness" : {
                "baseColorFactor" : [
                    0.8829370141029358,
                    1,
                    1,
                    1
                ],
                "metallicFactor" : 0,
                "roughnessFactor" : 0.715708315372467
            }
        },
        {
            "doubleSided" : true,
            "name" : "Marble.002",
            "pbrMetallicRoughness" : {
                "baseColorTexture" : {
                    "index" : 0
                },
                "metallicFactor" : 0,
                "roughnessFactor" : 0.7883399128913879
            }
        }
    ],
    "meshes" : [
        {
            "name" : "Board.003_Black Square.010_0.002",
            "primitives" : [
                {
                    "attributes" : {
                        "POSITION" : 0,
                        "TEXCOORD_0" : 1,
                        "NORMAL" : 2
                    },
                    "indices" : 3,
                    "material" : 0
                }
            ]
        },
        {
            "name" : "Board.003_White Square.012_0.002",
            "primitives" : [
                {
                    "attributes" : {
                        "POSITION" : 4,
                        "TEXCOORD_0" : 5,
                        "NORMAL" : 6
                    },
                    "indices" : 7,
                    "material" : 1
                }
            ]
        },
        {
            "name" : "Frame 02.002_Marble.004_0.002",
            "primitives" : [
                {
                    "attributes" : {
                        "POSITION" : 8,
                        "TEXCOORD_0" : 9,
                        "NORMAL" : 10
                    },
                    "indices" : 11,
                    "material" : 2
                }
            ]
        }
    ],
    "textures" : [
        {
            "sampler" : 0,
            "source" : 0
        }
    ],
    "images" : [
        {
            "bufferView" : 12,
            "mimeType" : "image/jpeg",
            "name" : "Marble.004_baseColor"
        }
    ],
    "accessors" : [
        {
            "bufferView" : 0,
            "componentType" : 5126,
            "count" : 564,
            "max" : [
                0.24000000953674316,
                0.24000003933906555,
                0.012164122425019741
            ],
            "min" : [
                -0.23999997973442078,
                -0.2399999499320984,
                -0.0021641217172145844
            ],
            "type" : "VEC3"
        },
        {
            "bufferView" : 1,
            "componentType" : 5126,
            "count" : 564,
            "type" : "VEC2"
        },
        {
            "bufferView" : 2,
            "componentType" : 5126,
            "count" : 564,
            "type" : "VEC3"
        },
        {
            "bufferView" : 3,
            "componentType" : 5123,
            "count" : 768,
            "type" : "SCALAR"
        },
        {
            "bufferView" : 4,
            "componentType" : 5126,
            "count" : 562,
            "max" : [
                0.24000000953674316,
                0.24000003933906555,
                0.012164122425019741
            ],
            "min" : [
                -0.23999997973442078,
                -0.2399999499320984,
                -0.0021641217172145844
            ],
            "type" : "VEC3"
        },
        {
            "bufferView" : 5,
            "componentType" : 5126,
            "count" : 562,
            "type" : "VEC2"
        },
        {
            "bufferView" : 6,
            "componentType" : 5126,
            "count" : 562,
            "type" : "VEC3"
        },
        {
            "bufferView" : 7,
            "componentType" : 5123,
            "count" : 768,
            "type" : "SCALAR"
        },
        {
            "bufferView" : 8,
            "componentType" : 5126,
            "count" : 112,
            "max" : [
                0.375,
                0.375,
                1.5894110202789307
            ],
            "min" : [
                -0.375,
                -0.375,
                -2.7924084663391113
            ],
            "type" : "VEC3"
        },
        {
            "bufferView" : 9,
            "componentType" : 5126,
            "count" : 112,
            "type" : "VEC2"
        },
        {
            "bufferView" : 10,
            "componentType" : 5126,
            "count" : 112,
            "type" : "VEC3"
        },
        {
            "bufferView" : 11,
            "componentType" : 5123,
            "count" : 132,
            "type" : "SCALAR"
        }
    ],
    "bufferViews" : [
        {
            "buffer" : 0,
            "byteLength" : 6768,
            "byteOffset" : 0,
            "target" : 34962
        },
        {
            "buffer" : 0,
            "byteLength" : 4512,
            "byteOffset" : 6768,
            "target" : 34962
        },
        {
            "buffer" : 0,
            "byteLength" : 6768,
            "byteOffset" : 11280,
            "target" : 34962
        },
        {
            "buffer" : 0,
            "byteLength" : 1536,
            "byteOffset" : 18048,
            "target" : 34963
        },
        {
            "buffer" : 0,
            "byteLength" : 6744,
            "byteOffset" : 19584,
            "target" : 34962
        },
        {
            "buffer" : 0,
            "byteLength" : 4496,
            "byteOffset" : 26328,
            "target" : 34962
        },
        {
            "buffer" : 0,
            "byteLength" : 6744,
            "byteOffset" : 30824,
            "target" : 34962
        },
        {
            "buffer" : 0,
            "byteLength" : 1536,
            "byteOffset" : 37568,
            "target" : 34963
        },
        {
            "buffer" : 0,
            "byteLength" : 1344,
            "byteOffset" : 39104,
            "target" : 34962
        },
        {
            "buffer" : 0,
            "byteLength" : 896,
            "byteOffset" : 40448,
            "target" : 34962
        },
        {
            "buffer" : 0,
            "byteLength" : 1344,
            "byteOffset" : 41344,
            "target" : 34962
        },
        {
            "buffer" : 0,
            "byteLength" : 264,
            "byteOffset" : 42688,
            "target" : 34963
        },
        {
            "buffer" : 0,
            "byteLength" : 416243,
            "byteOffset" : 42952
        }
    ],
    "samplers" : [
        {
            "magFilter" : 9729,
            "minFilter" : 9987
        }
    ],
    "buffers" : [
        {
            "byteLength" : 459196,
            "uri" : "data:application/octet-stream;base64,"
        }
    ]
}
