{
    "asset" : {
        "generator" : "Khronos glTF Blender I/O v3.4.50",
        "version" : "2.0"
    },
    "scene" : 0,
    "scenes" : [
        {
            "name" : "Scene",
            "nodes" : [
                0
            ]
        }
    ],
    "nodes" : [
        {
            "mesh" : 0,
            "name" : "uploads_files_2063903_chessPieces.002",
            "rotation" : [
                0.49982941150665283,
                0.5001705288887024,
                -0.5001705288887024,
                0.49982941150665283
            ],
            "translation" : [
                0,
                0,
                6
            ]
        }
    ],
    "materials" : [
        {
            "doubleSided" : true,
            "name" : "Material.004",
            "pbrMetallicRoughness" : {
                "baseColorTexture" : {
                    "index" : 0
                },
                "metallicFactor" : 0,
                "roughnessFactor" : 0.5
            }
        }
    ],
    "meshes" : [
        {
            "name" : "uploads_files_2063903_chessPieces.002",
            "primitives" : [
                {
                    "attributes" : {
                        "POSITION" : 0,
                        "NORMAL" : 1
                    },
                    "indices" : 2,
                    "material" : 0
                }
            ]
        }
    ],
    "textures" : [
        {
            "sampler" : 0,
            "source" : 0
        }
    ],
    "images" : [
        {
            "bufferView" : 3,
            "mimeType" : "image/jpeg",
            "name" : "plywood_diff_1k"
        }
    ],
    "accessors" : [
        {
            "bufferView" : 0,
            "componentType" : 5126,
            "count" : 3548,
            "max" : [
                8.339102745056152,
                2.1652770042419434,
                -0.01284599956125021
            ],
            "min" : [
                4.032270908355713,
                -2.1652770042419434,
                -8.291202545166016
            ],
            "type" : "VEC3"
        },
        {
            "bufferView" : 1,
            "componentType" : 5126,
            "count" : 3548,
            "type" : "VEC3"
        },
        {
            "bufferView" : 2,
            "componentType" : 5123,
            "count" : 3660,
            "type" : "SCALAR"
        }
    ],
    "bufferViews" : [
        {
            "buffer" : 0,
            "byteLength" : 42576,
            "byteOffset" : 0,
            "target" : 34962
        },
        {
            "buffer" : 0,
            "byteLength" : 42576,
            "byteOffset" : 42576,
            "target" : 34962
        },
        {
            "buffer" : 0,
            "byteLength" : 7320,
            "byteOffset" : 85152,
            "target" : 34963
        },
        {
            "buffer" : 0,
            "byteLength" : 589463,
            "byteOffset" : 92472
        }
    ],
    "samplers" : [
        {
            "magFilter" : 9729,
            "minFilter" : 9987
        }
    ],
    "buffers" : [
        {
            "byteLength" : 681936,
            "uri" : "data:application/octet-stream;base64,"
        }
    ]
}
