{
    "asset" : {
        "generator" : "Khronos glTF Blender I/O v3.4.50",
        "version" : "2.0"
    },
    "scene" : 0,
    "scenes" : [
        {
            "name" : "Scene",
            "nodes" : [
                0
            ]
        }
    ],
    "nodes" : [
        {
            "mesh" : 0,
            "name" : "uploads_files_2063903_chessPieces.006",
            "rotation" : [
                0.70710688829422,
                0,
                0,
                0.7071066498756409
            ]
        }
    ],
    "meshes" : [
        {
            "name" : "uploads_files_2063903_chessPieces.006",
            "primitives" : [
                {
                    "attributes" : {
                        "POSITION" : 0,
                        "NORMAL" : 1
                    },
                    "indices" : 2
                }
            ]
        }
    ],
    "accessors" : [
        {
            "bufferView" : 0,
            "componentType" : 5126,
            "count" : 1575,
            "max" : [
                19.34235954284668,
                2.487546920776367,
                -0.011049999855458736
            ],
            "min" : [
                14.394518852233887,
                -2.487546920776367,
                -9.7799654006958
            ],
            "type" : "VEC3"
        },
        {
            "bufferView" : 1,
            "componentType" : 5126,
            "count" : 1575,
            "type" : "VEC3"
        },
        {
            "bufferView" : 2,
            "componentType" : 5123,
            "count" : 2379,
            "type" : "SCALAR"
        }
    ],
    "bufferViews" : [
        {
            "buffer" : 0,
            "byteLength" : 18900,
            "byteOffset" : 0,
            "target" : 34962
        },
        {
            "buffer" : 0,
            "byteLength" : 18900,
            "byteOffset" : 18900,
            "target" : 34962
        },
        {
            "buffer" : 0,
            "byteLength" : 4758,
            "byteOffset" : 37800,
            "target" : 34963
        }
    ],
    "buffers" : [
        {
            "byteLength" : 42560,
            "uri" : "data:application/octet-stream;base64,"
        }
    ]
}
