{
    "asset" : {
        "generator" : "Khronos glTF Blender I/O v3.4.50",
        "version" : "2.0"
    },
    "scene" : 0,
    "scenes" : [
        {
            "name" : "Scene",
            "nodes" : [
                0
            ]
        }
    ],
    "nodes" : [
        {
            "mesh" : 0,
            "name" : "uploads_files_2063903_chessPieces.001",
            "rotation" : [
                0.70710688829422,
                0,
                0,
                0.7071066498756409
            ]
        }
    ],
    "meshes" : [
        {
            "name" : "uploads_files_2063903_chessPieces.001",
            "primitives" : [
                {
                    "attributes" : {
                        "POSITION" : 0,
                        "NORMAL" : 1
                    },
                    "indices" : 2
                }
            ]
        }
    ],
    "accessors" : [
        {
            "bufferView" : 0,
            "componentType" : 5126,
            "count" : 1800,
            "max" : [
                -6.797348976135254,
                2.1018099784851074,
                -0.0009350000182166696
            ],
            "min" : [
                -10.97794246673584,
                -2.1018099784851074,
                -6.3679609298706055
            ],
            "type" : "VEC3"
        },
        {
            "bufferView" : 1,
            "componentType" : 5126,
            "count" : 1800,
            "type" : "VEC3"
        },
        {
            "bufferView" : 2,
            "componentType" : 5123,
            "count" : 2694,
            "type" : "SCALAR"
        }
    ],
    "bufferViews" : [
        {
            "buffer" : 0,
            "byteLength" : 21600,
            "byteOffset" : 0,
            "target" : 34962
        },
        {
            "buffer" : 0,
            "byteLength" : 21600,
            "byteOffset" : 21600,
            "target" : 34962
        },
        {
            "buffer" : 0,
            "byteLength" : 5388,
            "byteOffset" : 43200,
            "target" : 34963
        }
    ],
    "buffers" : [
        {
            "byteLength" : 48588,
            "uri" : "data:application/octet-stream;base64,"
        }
    ]
}
